<svg width="120" height="19" viewBox="0 0 120 19" fill="none" xmlns="http://www.w3.org/2000/svg">
<path fill-rule="evenodd" clip-rule="evenodd" d="M85.9 9.79993V18.6999H91.5V17.2999H87.4V9.79993H85.9Z" fill="#D9D9D9"/>
<path fill-rule="evenodd" clip-rule="evenodd" d="M92.9 18.6861H94.3V12.5861H92.9V18.6861ZM92.7 10.7861C92.7 10.2861 93.1 9.88611 93.6 9.88611C94.1 9.88611 94.5 10.2861 94.5 10.7861C94.5 11.2861 94.1 11.6861 93.6 11.6861C93.1 11.6861 92.7 11.2861 92.7 10.7861Z" fill="#D9D9D9"/>
<path fill-rule="evenodd" clip-rule="evenodd" d="M101.8 12.5861L99.3 18.6861H98L95.6 12.5861H97.1L98.7 16.9861L100.2 12.5861H101.8Z" fill="#D9D9D9"/>
<path fill-rule="evenodd" clip-rule="evenodd" d="M106.4 12.4861V14.0861C106.2 14.0861 106.1 14.0861 106 14.0861C104.9 14.0861 104.3 14.8861 104.3 15.7861V18.6861H102.9V12.5861H104.3V13.4861C104.8 12.8861 105.5 12.4861 106.2 12.4861C106.3 12.4861 106.3 12.4861 106.4 12.4861Z" fill="#D9D9D9"/>
<path fill-rule="evenodd" clip-rule="evenodd" d="M112 15.6861C112 14.5861 111.2 13.7861 110.2 13.7861C109.1 13.7861 108.4 14.5861 108.4 15.6861C108.4 16.6861 109.1 17.5861 110.2 17.5861C111.2 17.4861 112 16.7861 112 15.6861ZM107 15.6861C107 13.8861 108.3 12.5861 110.2 12.5861C112.1 12.5861 113.4 13.8861 113.4 15.6861C113.4 17.5861 112.1 18.7861 110.2 18.7861C108.3 18.7861 107 17.4861 107 15.6861Z" fill="#D9D9D9"/>
<path fill-rule="evenodd" clip-rule="evenodd" d="M114.3 17.8861L115 16.8861C115.5 17.3861 116 17.5861 116.8 17.5861C117.3 17.5861 117.7 17.3861 117.7 16.9861C117.7 16.6861 117.3 16.4861 116.5 16.2861C115.5 15.9861 114.6 15.4861 114.6 14.2861C114.6 13.2861 115.5 12.5861 116.7 12.5861C117.5 12.5861 118.2 12.7861 118.9 13.3861L118.2 14.4861C117.7 13.9861 117.2 13.7861 116.7 13.7861C116.4 13.7861 116 13.9861 116 14.2861C116 14.5861 116.4 14.7861 117 14.9861C118.3 15.4861 119.1 15.6861 119.1 16.9861C119.1 17.9861 118.4 18.7861 116.8 18.7861C115.8 18.7861 115 18.4861 114.3 17.8861Z" fill="#D9D9D9"/>
<path fill-rule="evenodd" clip-rule="evenodd" d="M79.8 11.4861C80 11.3861 80.1 11.0861 80 10.8861C79.7 10.2861 79 9.08609 77.6 8.68609C76.2 8.28609 75 8.98609 74.5 9.38609C74.3 9.48609 74.3 9.78609 74.3 9.98609C74.6 10.5861 75.3 11.7861 76.7 12.1861C78.1 12.5861 79.3 11.8861 79.8 11.4861Z" fill="white"/>
<path fill-rule="evenodd" clip-rule="evenodd" d="M77.1 1.28608C77 1.08608 76.7 0.986084 76.4 0.986084C75.6 1.28608 73.7 1.98608 73 3.68608C72.3 5.48608 73.2 7.18608 73.7 7.98608C73.8 8.18608 74.1 8.28608 74.4 8.28608C75.2 7.98608 77.1 7.28608 77.8 5.48608C78.4 3.68608 77.5 1.98608 77.1 1.28608Z" fill="white"/>
<path fill-rule="evenodd" clip-rule="evenodd" d="M15.8 18.0861V5.88612C15.8 5.78612 15.9 5.68612 16 5.68612H18.5C18.6 5.68612 18.7 5.78612 18.7 5.88612V7.38612C18.7 7.38612 19.7 5.18612 22.7 5.48612C22.9 5.48612 23 5.58612 23 5.78612V8.28612C23 8.48612 22.9 8.58612 22.7 8.58612C21.9 8.58612 21.4 8.78612 20.7 9.18612C20 9.48612 19.4 10.0861 19 10.8861V18.1861C19 18.4861 18.8 18.6861 18.5 18.6861H16.1C16 18.4861 15.8 18.2861 15.8 18.0861Z" fill="white"/>
<path fill-rule="evenodd" clip-rule="evenodd" d="M51.3 18.0861V5.98612C51.3 5.78612 51.4 5.68612 51.6 5.68612H54.1C54.3 5.68612 54.4 5.78612 54.4 5.98612V7.38612C54.4 7.38612 55.4 5.18612 58.4 5.48612C58.5 5.48612 58.7 5.58612 58.7 5.78612V8.28612C58.7 8.48612 58.6 8.58612 58.4 8.58612C57.6 8.58612 57.1 8.78612 56.4 9.18612C55.7 9.48612 55.1 10.0861 54.7 10.8861V18.1861C54.7 18.4861 54.5 18.6861 54.2 18.6861H51.8C51.5 18.4861 51.3 18.2861 51.3 18.0861Z" fill="white"/>
<path fill-rule="evenodd" clip-rule="evenodd" d="M43.5 15.586C41.5 15.586 39.9 13.986 39.9 11.986C39.9 9.98603 41.5 8.38603 43.5 8.38603C45.5 8.38603 47.1 9.98603 47.1 11.986C47.1 13.986 45.4 15.586 43.5 15.586ZM43.5 5.18604C39.8 5.18604 36.7 8.18603 36.7 11.986C36.7 15.686 39.7 18.786 43.5 18.786C47.2 18.786 50.3 15.786 50.3 11.986C50.2 8.18603 47.2 5.18604 43.5 5.18604Z" fill="white"/>
<path fill-rule="evenodd" clip-rule="evenodd" d="M69.2 13.0861C69 13.0861 68.9 13.1861 68.9 13.2861C68.2 15.1861 66.1 16.0861 64.2 15.2861C63.6 15.0861 63.1 14.6861 62.7 14.1861L69.1 11.7861L71.7 10.7861C72 10.6861 72.1 10.3861 72 10.1861C71 6.58609 67.3 4.48609 63.7 5.38609C60.1 6.48609 58 10.1861 59 13.7861C60 17.3861 63.7 19.4861 67.3 18.5861C69.8 17.8861 71.7 15.8861 72.2 13.2861C72.2 13.1861 72.1 13.0861 72 13.0861H69.2ZM65.5 8.38609C66.6 8.38609 67.7 8.98609 68.4 9.88609L61.9 12.2861C61.9 12.1861 61.9 12.0861 61.9 11.9861C61.9 9.98609 63.5 8.38609 65.5 8.38609Z" fill="white"/>
<path fill-rule="evenodd" clip-rule="evenodd" d="M35.9 5.78608C34.6 6.08608 33.6 6.98608 33 8.08608C32.9 8.28608 32.8 8.58608 32.7 8.88608L30.7 14.7861L28.7 8.88608C28.6 8.68608 28.5 8.38608 28.4 8.18608C27.8 6.88608 26.6 5.98608 25.2 5.68608C24.8 5.58608 24.4 5.58608 24 5.68608L28.6 18.0861C28.7 18.2861 28.9 18.4861 29.1 18.4861H31.8H31.9H32C32.2 18.4861 32.4 18.3861 32.5 18.0861L37.1 5.68608C36.8 5.58608 36.3 5.68608 35.9 5.78608Z" fill="white"/>
<path fill-rule="evenodd" clip-rule="evenodd" d="M9.39998 3.28613L9.29998 2.88613C9.09998 2.38613 8.89998 2.28613 8.29998 2.28613H6.69998C6.09998 2.28613 5.79998 2.58613 5.59998 3.08613L4.99998 4.68613C6.19998 3.78613 7.59999 3.28613 9.09999 3.28613C9.19999 3.28613 9.29998 3.28613 9.39998 3.28613Z" fill="white"/>
<path fill-rule="evenodd" clip-rule="evenodd" d="M5.59998 12.1861L7.49998 6.98613L9.29998 12.1861H5.59998ZM9.69998 4.28613C9.49998 4.28613 9.29999 4.28613 9.09999 4.28613C7.99999 4.28613 5.49998 4.58613 4.09998 7.38613C4.09998 7.48613 3.99998 7.48613 3.99998 7.58613V7.68613C3.89998 7.88613 3.79998 7.98613 3.79998 8.08613L-1.5121e-05 17.9861C-0.100015 18.1861 -1.51247e-05 18.3861 0.199985 18.4861H0.299985H3.19999C3.39999 18.4861 3.49998 18.3861 3.59998 18.1861L4.99998 14.3861H9.79998L11.2 18.1861C11.3 18.3861 11.4 18.4861 11.6 18.4861H14.5C14.7 18.4861 14.9 18.2861 14.9 18.0861V17.9861L9.69998 4.28613Z" fill="white"/>
</svg>
